Coordinates
version=1
nRows=9
nColumns=63
inDegrees=yes

Units are S.I. units (second, meters, Newtons, ...)
If the header above contains a line with 'inDegrees', this indicates whether rotational values are in degrees (yes) or radians (no).

endheader
time	pelvis_tilt	pelvis_list	pelvis_rotation	pelvis_tx	pelvis_ty	pelvis_tz	hip_flexion_r	hip_adduction_r	hip_rotation_r	knee_angle_r	knee_angle_r_beta	ankle_angle_r	subtalar_angle_r	mtp_angle_r	hip_flexion_l	hip_adduction_l	hip_rotation_l	knee_angle_l	knee_angle_l_beta	ankle_angle_l	subtalar_angle_l	mtp_angle_l	L5_S1_Flex_Ext	L5_S1_Lat_Bending	L5_S1_axial_rotation	L4_L5_Flex_Ext	L4_L5_Lat_Bending	L4_L5_axial_rotation	L3_L4_Flex_Ext	L3_L4_Lat_Bending	L3_L4_axial_rotation	L2_L3_Flex_Ext	L2_L3_Lat_Bending	L2_L3_axial_rotation	L1_L2_Flex_Ext	L1_L2_Lat_Bending	L1_L2_axial_rotation	L1_T12_Flex_Ext	L1_T12_Lat_Bending	L1_T12_axial_rotation	Abs_r3	Abs_r2	Abs_r1	Abs_t1	Abs_t2	neck_flexion	neck_bending	neck_rotation	arm_flex_r	arm_add_r	arm_rot_r	elbow_flex_r	pro_sup_r	wrist_flex_r	wrist_dev_r	arm_flex_l	arm_add_l	arm_rot_l	elbow_flex_l	pro_sup_l	wrist_flex_l	wrist_dev_l
4.508475	0.407015	-6.723325	89.532710	-0.080713	0.806598	0.665974	5.204076	-1.768026	-4.652851	5.849342	0.102090	22.634868	11.513630	0.000000	4.644499	-0.127626	-8.809234	4.216379	0.073590	22.361718	5.388768	0.000000	0.231942	-0.238112	1.075620	0.430739	-0.316689	1.142847	0.381057	-0.578946	1.142847	0.265086	-0.578946	0.941168	0.215381	-0.485559	0.873942	0.132532	-0.368836	0.806715	1.656738	-2.693574	5.982279	0.000000	0.000000	26.947249	-4.630413	-13.016605	18.245682	8.478070	215.296219	0.259251	5.891269	-49.689816	-20.665844	23.439524	-14.440042	91.017311	49.254329	52.345372	-11.663783	-1.385907
4.525424	0.464976	-6.718200	89.955922	-0.081093	0.806461	0.665784	5.089876	-1.726695	-4.814448	5.732693	0.100054	22.629241	11.321153	0.000000	4.710132	-0.178616	-8.714173	4.316097	0.075330	22.403135	5.569985	0.000000	0.228601	-0.232304	0.983794	0.424536	-0.308964	1.045281	0.375569	-0.564823	1.045281	0.261269	-0.564823	0.860820	0.212279	-0.473714	0.799332	0.130623	-0.359839	0.737845	1.632877	-2.627867	5.471566	0.000000	0.000000	27.054161	-4.682042	-13.002786	18.412735	8.282161	212.698717	0.268163	5.463777	-47.327414	-20.989968	23.236727	-14.515128	90.173608	49.461121	52.735764	-11.527486	-1.635591
4.542373	0.517074	-6.709387	90.387957	-0.081443	0.806352	0.665513	4.969329	-1.688060	-5.003974	5.626619	0.098203	22.635673	11.154877	0.000000	4.764336	-0.226815	-8.672097	4.427696	0.077278	22.387410	5.788110	0.000000	0.225714	-0.228282	0.895678	0.419174	-0.303615	0.951658	0.370826	-0.555044	0.951658	0.257969	-0.555044	0.783718	0.209598	-0.465512	0.727738	0.128973	-0.353608	0.671758	1.612253	-2.582369	4.981491	0.000000	0.000000	27.144889	-4.771412	-13.042248	18.499472	8.130286	211.443401	0.270494	5.062981	-47.407953	-21.419052	23.014837	-14.595063	89.355185	49.672522	52.971997	-11.625111	-1.680948
4.559322	0.580764	-6.693868	90.821466	-0.081806	0.806228	0.665172	4.834702	-1.632668	-5.199741	5.516284	0.096277	22.635914	10.975782	0.000000	4.800258	-0.287349	-8.690237	4.539052	0.079221	22.365249	6.105897	0.000000	0.222105	-0.222337	0.820317	0.412472	-0.295708	0.871587	0.364897	-0.540590	0.871587	0.253844	-0.540590	0.717777	0.206247	-0.453390	0.666507	0.126911	-0.344400	0.615238	1.586476	-2.515121	4.562356	0.000000	0.000000	27.237969	-4.896431	-13.085078	18.533777	7.982232	210.145998	0.273315	4.843772	-47.806721	-21.810795	22.798810	-14.649316	88.654416	49.887805	52.978425	-11.916458	-1.594845
4.576271	0.660148	-6.674446	91.238058	-0.082171	0.806088	0.664753	4.696456	-1.557372	-5.415704	5.414003	0.094492	22.638765	10.827408	0.000000	4.805060	-0.354713	-8.454790	4.613380	0.080519	22.261016	6.095710	0.000000	0.219176	-0.213692	0.757473	0.407033	-0.284211	0.804815	0.360085	-0.519572	0.804815	0.250497	-0.519572	0.662789	0.203527	-0.435761	0.615447	0.125237	-0.331009	0.568105	1.565556	-2.417330	4.212838	0.000000	0.000000	27.326798	-5.051961	-13.116328	18.515923	7.844461	208.960156	0.276177	4.653656	-48.331340	-22.136682	22.513627	-14.680218	87.878042	50.075795	53.244840	-12.296877	-1.334969
4.593220	0.749887	-6.646562	91.605846	-0.082478	0.805951	0.664273	4.557091	-1.463023	-5.606225	5.324191	0.092925	22.632727	10.674328	0.000000	4.773682	-0.429163	-8.054351	4.652001	0.081193	22.115991	5.875185	0.000000	0.216696	-0.203247	0.708583	0.402426	-0.270319	0.752870	0.356010	-0.494175	0.752870	0.247662	-0.494175	0.620010	0.201224	-0.414461	0.575724	0.123820	-0.314830	0.531438	1.547838	-2.299171	3.940928	0.000000	0.000000	27.404701	-5.213311	-13.123634	18.462622	7.726764	207.985450	0.278491	4.456720	-48.874905	-22.364562	22.161230	-14.695787	87.030702	50.231480	53.827337	-12.764102	-0.965904
4.610169	0.840948	-6.604204	91.906359	-0.082675	0.805841	0.663756	4.415248	-1.358315	-5.785820	5.249937	0.091629	22.623112	10.556000	0.000000	4.704305	-0.507663	-7.581283	4.663699	0.081397	21.968412	5.567313	0.000000	0.214334	-0.192860	0.675510	0.398040	-0.256503	0.717730	0.352130	-0.468919	0.717730	0.244963	-0.468919	0.591072	0.199031	-0.393279	0.548852	0.122471	-0.298739	0.506633	1.530969	-2.181665	3.756986	0.000000	0.000000	27.459989	-5.345172	-13.111015	18.385540	7.635601	207.127628	0.280701	4.262745	-49.300786	-22.528638	21.816670	-14.688917	86.312166	50.332982	54.445836	-13.304824	-0.646102
4.627119	0.933958	-6.544677	92.090839	-0.082702	0.805763	0.663214	4.277796	-1.239295	-5.899056	5.199371	0.090746	22.606609	10.454490	0.000000	4.583488	-0.590698	-7.036269	4.629151	0.080794	21.814127	5.101510	0.000000	0.212150	-0.181693	0.661087	0.393984	-0.241652	0.702405	0.348541	-0.441769	0.702405	0.242466	-0.441769	0.578451	0.197003	-0.370509	0.537133	0.121223	-0.281443	0.495815	1.515367	-2.055350	3.676765	0.000000	0.000000	27.487665	-5.445045	-13.032381	18.291567	7.572692	206.391622	0.282667	4.084494	-49.596907	-22.616127	21.434253	-14.660842	85.551259	50.403380	55.205774	-13.841474	-0.214248
4.644068	1.032889	-6.474058	92.174308	-0.082580	0.805712	0.662688	4.155879	-1.103922	-5.959591	5.177976	0.090373	22.587558	10.368099	0.000000	4.428682	-0.683676	-6.419366	4.556498	0.079526	21.677168	4.507660	0.000000	0.210627	-0.169872	0.659680	0.391155	-0.225930	0.700910	0.346039	-0.413027	0.700910	0.240725	-0.413027	0.577220	0.195588	-0.346403	0.535990	0.120352	-0.263132	0.494760	1.504486	-1.921625	3.668941	0.000000	0.000000	27.485786	-5.491947	-12.916926	18.189661	7.542433	205.797223	0.284854	3.907156	-49.764132	-22.619940	21.048713	-14.622426	84.799229	50.440369	56.058069	-14.329959	0.325051
